<?xml version="1.0" encoding="UTF-8"?>
<svg width="323.96" height="241.44" enable-background="new 0 0 225.938 407.407" version="1.1" viewBox="0 0 323.95758 241.43868" xml:space="preserve" xmlns="http://www.w3.org/2000/svg"><defs><clipPath id="a"><rect x="-7.7496" y="35.646" width="326.01" height="241.44" fill="none"/></clipPath></defs><g transform="translate(7.7496 -35.646)" clip-path="url(#a)"><g clip-rule="evenodd" fill-rule="evenodd"><path d="m154.38 34.983c-3.2126 19.282-78.508 116.95-111.36 146.69-32.893 29.797-72.514 69.209-100.95 105.82-12.137 15.585-14.118 23.69-3.5593 31.079 18.641 13.045 69.79-9.6869 98.842 11.963 29.111 21.691 7.6286 72.48 21.756 81.927 14.128 9.4478 28.721 12.454 58.934-30.466 90.245-128.07 55.472-307.43 36.333-347.01z"/><path d="m175.91 202.87c-1.1721 15.613 21.467 18.802 30.885 6.8507 9.4186-11.951 18.571-28.922 10.902-35.168s-7.7938-18.373-15.463-24.619c-7.6687-6.2457-21.996-4.2328-18.258-17.611 3.7382-13.378 20.838-8.1775 32.418-2.6224-2.7799-15.743-1.0236-29.805 2.3784-43.33 3.402-13.526 7.2465-25.423 21.562-21.644 14.316 3.7794-1.6961 24.65 4.4462 43.625 6.3213-17.195 9.1164-24.202 15.315-32.431 6.1984-8.229 10.108-15.072 20.927-5.0395 10.819 10.032-11.794 31.293-9.574 47.961 9.5606-7.6336 19.817-18.647 30.169-18.872 10.352-0.22525 26.007 10.555 1.6896 24.207-24.318 13.652-19.32 33.759-33.681 47.876-14.361 14.117-21.617 4.6444-32.936 12.278-11.318 7.6338-21.585 35.865-36.607 41.258-15.023 5.3928-27.856 20.842-32.125 37.364-5.2169-24.567 7.9506-60.083 7.9506-60.083z"/><path d="m72.476 151.14c-35.222 37.394-59.808 27.57-72.965 44.111-13.158 16.541-7.6479 22.857-19.248 38.554-11.601 15.697-30.358 12.237-38.137 19.711-7.7793 7.4742-0.69424 16.563 4.5558 20.237 5.25 3.6742 26.6-15.657 38.962-28.801 12.362-13.143 9.3048-28.113 16.323-38.141 7.0181-10.028 33.012-19.168 19.323-4.7562 22.968-9.5875 43.517-27.899 51.187-50.915z"/><path d="m69.513 172.7c-20.371 19.314-137.16 125.03-123.64 136.86 13.515 11.831 62.699-14.122 96.589 10.035 33.948 24.198 15.816 78.737 24.34 84.263 8.5239 5.526 11.739 12.61 48.21-37.62 36.471-50.229 50.895-136.89 52.572-178.34-26.009-15.829-66.744-14.633-98.07-15.202z" fill="#fff"/></g><g transform="rotate(34.986 115.16 206.66)"><path d="m139.16 172.18c-1.95-18.251-19.12-25.421-35.661-23.168-13.889 1.893-32.403 13.613-34.107 28.64-1.921 16.937 11.402 32.522 28.361 33.203 15.03 0.604 31.176-6.668 37.93-20.79 2.73-5.704 3.797-11.578 3.477-17.885" fill="none"/><path d="m147.08 171.53c-1.662-17.195-14.407-27.988-30.895-30.627-15.924-2.549-33.26 4.998-44.408 16.146-12.538 12.538-13.039 29.978-4.26 44.833 8.661 14.657 27.847 19.501 43.563 15.835 21.506-5.015 37.398-23.824 36-46.187"/><radialGradient id="SVGID_1_" cx="86.63" cy="167.07" r="54.716" gradientUnits="userSpaceOnUse"><stop stop-color="#fff" offset="0"/><stop stop-color="#FBC8B4" offset=".0604"/><stop stop-color="#FBC3B0" offset=".0712"/><stop stop-color="#F7978B" offset=".1829"/><stop stop-color="#F4716B" offset=".2995"/><stop stop-color="#F15251" offset=".4199"/><stop stop-color="#EF3A3D" offset=".5453"/><stop stop-color="#EE292F" offset=".6778"/><stop stop-color="#ED1F27" offset=".822"/><stop stop-color="#ED1C24" offset="1"/></radialGradient><path d="m139.16 177.94c-1.493 15.627-13.947 28.182-28.944 31.824-15.87 3.854-33.393-2.257-39.096-18.576-2.912-8.332-2.37-16.879 2.637-24.198 4.223-6.171 11.033-11 17.779-14.066 13.924-6.326 33.832-7.029 43.531 7.077 3.675 5.346 4.318 11.639 4.093 17.939" fill="url(#SVGID_1_)" stroke="#000"/></g></g></svg>
